Coordinates
version=1
nRows=20
nColumns=38
inDegrees=no

Units are S.I. units (second, meters, Newtons, ...)
If the header above contains a line with 'inDegrees', this indicates whether rotational values are in degrees (yes) or radians (no).

endheader
time	pelvis_tilt	pelvis_list	pelvis_rotation	pelvis_tx	pelvis_ty	pelvis_tz	hip_flexion_r	hip_adduction_r	hip_rotation_r	knee_angle_r	ankle_angle_r	subtalar_angle_r	mtp_angle_r	hip_flexion_l	hip_adduction_l	hip_rotation_l	knee_angle_l	ankle_angle_l	subtalar_angle_l	mtp_angle_l	lumbar_extension	lumbar_bending	lumbar_rotation	arm_flex_r	arm_add_r	arm_rot_r	elbow_flex_r	pro_sup_r	wrist_flex_r	wrist_dev_r	arm_flex_l	arm_add_l	arm_rot_l	elbow_flex_l	pro_sup_l	wrist_flex_l	wrist_dev_l
21.7	-2.34717	1.37982	-1.40771	0.13576	-0.031285	0.944407	0.125209	-0.269088	-0.375337	0.328467	-0.355632	0	0	-0.221924	-0.0727345	-0.0720989	0.177166	0.0844177	0	0	-0.509025	-0.0486356	0.171993	0.435367	-0.164083	0.344796	0.477362	1.15837	0	0	-0.0694113	-0.312081	0.0605966	1.01312	0.0221631	0	0
21.71	-2.36676	1.37386	-1.40048	0.137417	-0.0344466	0.944963	0.128192	-0.266379	-0.372854	0.338685	-0.349793	0	0	-0.22972	-0.0715139	-0.0799906	0.170657	0.0812123	0	0	-0.510064	-0.0501053	0.168402	0.434825	-0.157185	0.34541	0.47788	1.15489	0	0	-0.0669169	-0.31814	0.0621843	1.01787	0.0230932	0	0
21.72	-2.47701	1.34539	-1.29933	0.138954	-0.0410678	0.949895	0.102567	-0.242785	-0.418788	0.34946	-0.337458	0	0	-0.254394	-0.0931877	-0.0846557	0.163273	0.0705948	0	0	-0.536752	-0.0196446	0.172464	0.442145	-0.162247	0.350956	0.480539	1.15239	0	0	-0.0520456	-0.306008	0.0596605	1.00142	0.0237457	0	0
21.73	-2.4412	1.34786	-1.34669	0.140069	-0.0422005	0.948525	0.116985	-0.255957	-0.407094	0.384188	-0.288976	0	0	-0.257142	-0.0794109	-0.0914902	0.157715	0.0700475	0	0	-0.526467	-0.0364885	0.163033	0.435473	-0.149641	0.35048	0.480918	1.14329	0	0	-0.0565368	-0.321497	0.0619163	1.01354	0.0229402	0	0
21.74	-2.46038	1.34174	-1.34008	0.141845	-0.0451463	0.949249	0.116375	-0.251271	-0.405016	0.399923	-0.254838	0	0	-0.262236	-0.0792948	-0.10032	0.155623	0.0670477	0	0	-0.526938	-0.0366683	0.160786	0.434076	-0.143332	0.351404	0.481254	1.13934	0	0	-0.0533669	-0.326653	0.0609137	1.01454	0.0232884	0	0
21.75	-2.47791	1.33595	-1.33485	0.143632	-0.0480242	0.950001	0.116383	-0.247431	-0.403586	0.420088	-0.218401	0	0	-0.266088	-0.079003	-0.109005	0.155077	0.0639953	0	0	-0.527024	-0.0368514	0.158465	0.432188	-0.137377	0.352845	0.481926	1.13639	0	0	-0.0504086	-0.331833	0.0594519	1.01555	0.0238551	0	0
21.76	-2.51675	1.33574	-1.30359	0.146266	-0.0510082	0.950079	0.123833	-0.238623	-0.40433	0.444176	-0.182657	0	0	-0.263322	-0.0842274	-0.116598	0.148884	0.0591653	0	0	-0.521735	-0.032572	0.15385	0.431021	-0.130267	0.354468	0.482923	1.1309	0	0	-0.0459585	-0.339019	0.058471	1.01712	0.0250946	0	0
21.77	-2.50832	1.34323	-1.32611	0.148708	-0.0520779	0.948654	0.133574	-0.236313	-0.371069	0.448583	-0.161405	0	0	-0.252757	-0.076634	-0.126942	0.153433	0.0606915	0	0	-0.506929	-0.0452682	0.149745	0.424636	-0.119184	0.355826	0.48465	1.12188	0	0	-0.0480414	-0.351891	0.0569878	1.02485	0.0261956	0	0
21.78	-2.53188	1.32058	-1.31337	0.148702	-0.056435	0.952147	0.116017	-0.23896	-0.412989	0.496253	-0.129984	0	0	-0.271158	-0.0804007	-0.131583	0.15929	0.0560188	0	0	-0.523724	-0.033114	0.148761	0.4228	-0.121699	0.367744	0.48955	1.1053	0	0	-0.0442181	-0.345598	0.0504726	1.01629	0.0292454	0	0
21.79	-2.56721	1.32134	-1.28743	0.15157	-0.059203	0.952182	0.123727	-0.23224	-0.418616	0.525446	-0.121393	0	0	-0.266806	-0.0849229	-0.141279	0.154104	0.0511633	0	0	-0.517301	-0.0294128	0.145015	0.42203	-0.117535	0.381525	0.492855	1.08465	0	0	-0.0414215	-0.350739	0.0434573	1.01748	0.0333695	0	0
21.8	-2.52053	1.33096	-1.35531	0.153822	-0.0586713	0.950192	0.132262	-0.234342	-0.374474	0.519573	-0.135879	0	0	-0.254511	-0.0670529	-0.155073	0.168143	0.0570557	0	0	-0.498869	-0.0549589	0.143151	0.413402	-0.106997	0.386488	0.494681	1.08036	0	0	-0.050264	-0.365386	0.0368334	1.03063	0.0349912	0	0
21.81	-2.60088	1.31467	-1.27844	0.155506	-0.0641433	0.953257	0.125124	-0.229093	-0.426239	0.586014	-0.114168	0	0	-0.264289	-0.0858809	-0.160696	0.160986	0.0473789	0	0	-0.510796	-0.0277352	0.140517	0.416969	-0.112534	0.400223	0.499485	1.07656	0	0	-0.041876	-0.356701	0.0262215	1.01987	0.0432824	0	0
21.82	-2.61811	1.31251	-1.27454	0.157803	-0.0664495	0.953638	0.127741	-0.225805	-0.421008	0.617821	-0.107407	0	0	-0.261452	-0.0865457	-0.170109	0.164876	0.0458749	0	0	-0.506557	-0.027508	0.13949	0.414479	-0.110169	0.40611	0.502468	1.07937	0	0	-0.0423604	-0.36016	0.0191289	1.02109	0.0455995	0	0
21.83	-2.61854	1.30527	-1.29151	0.159373	-0.0684592	0.954636	0.122556	-0.227138	-0.414611	0.650769	-0.0960733	0	0	-0.263624	-0.0833096	-0.178829	0.176139	0.0465025	0	0	-0.506939	-0.0304021	0.140784	0.410664	-0.109216	0.415036	0.505471	1.08022	0	0	-0.0453033	-0.361145	0.00953763	1.02197	0.0480371	0	0
21.84	-2.63432	1.30279	-1.2891	0.161586	-0.0710684	0.95506	0.125567	-0.229521	-0.405718	0.700229	-0.0732111	0	0	-0.260673	-0.0834571	-0.18826	0.180869	0.0442962	0	0	-0.503479	-0.0292182	0.139966	0.408093	-0.108588	0.425875	0.509618	1.07471	0	0	-0.0459452	-0.36217	-0.000314348	1.022	0.051039	0	0
21.85	-2.65668	1.30126	-1.28176	0.164617	-0.0730042	0.955275	0.122763	-0.217455	-0.402037	0.713337	-0.0788319	0	0	-0.255147	-0.0869683	-0.201011	0.188278	0.043344	0	0	-0.498739	-0.028651	0.141747	0.405902	-0.107138	0.43517	0.513306	1.07096	0	0	-0.0464883	-0.36554	-0.0089828	1.02336	0.0531794	0	0
21.86	-2.67384	1.29956	-1.27948	0.167455	-0.0752928	0.955446	0.121036	-0.21298	-0.394772	0.741974	-0.0741204	0	0	-0.250389	-0.0884776	-0.212043	0.194887	0.042921	0	0	-0.494814	-0.0282425	0.143123	0.404768	-0.107399	0.44556	0.516504	1.07016	0	0	-0.0469235	-0.367602	-0.0173766	1.02401	0.055036	0	0
21.87	-2.69049	1.30374	-1.27755	0.170254	-0.0771711	0.955285	0.126136	-0.20992	-0.383587	0.772354	-0.0689639	0	0	-0.239246	-0.0887586	-0.222621	0.202381	0.0428153	0	0	-0.482704	-0.0323591	0.141351	0.408519	-0.102869	0.306676	0.50539	1.5708	0	0	-0.0512892	-0.370331	-0.0295819	1.0267	0.0704304	0	0
21.88	-2.6993	1.30194	-1.28379	0.173093	-0.0792943	0.955301	0.124642	-0.207987	-0.37187	0.803492	-0.0637451	0	0	-0.236583	-0.088145	-0.233099	0.206962	0.0422375	0	0	-0.478825	-0.0338657	0.14241	0.407273	-0.102874	0.316412	0.507715	1.5708	0	0	-0.0525326	-0.372645	-0.036758	1.02711	0.0709621	0	0
21.89	-2.70455	1.2952	-1.29443	0.176106	-0.0817969	0.955394	0.116573	-0.206437	-0.36138	0.832704	-0.0596532	0	0	-0.239611	-0.087795	-0.245353	0.211099	0.0425226	0	0	-0.482477	-0.0319862	0.146329	0.402007	-0.109209	0.480152	0.523587	1.087	0	0	-0.0507389	-0.37326	-0.0430654	1.02549	0.0671431	0	0
